G04 MADE WITH FRITZING*
G04 WWW.FRITZING.ORG*
G04 DOUBLE SIDED*
G04 HOLES PLATED*
G04 CONTOUR ON CENTER OF CONTOUR VECTOR*
%ASAXBY*%
%FSLAX23Y23*%
%MOIN*%
%OFA0B0*%
%SFA1.0B1.0*%
%ADD10C,0.075000*%
%ADD11C,0.062992*%
%ADD12C,0.099000*%
%ADD13C,0.070000*%
%ADD14C,0.039370*%
%ADD15R,0.075000X0.075000*%
%ADD16R,0.062992X0.062992*%
%ADD17R,0.099000X0.099000*%
%ADD18R,0.070000X0.069972*%
%ADD19C,0.024000*%
%ADD20C,0.032000*%
%LNCOPPER1*%
G90*
G70*
G54D10*
X967Y346D03*
X967Y646D03*
X1067Y346D03*
X1067Y646D03*
X1167Y346D03*
X1167Y646D03*
X1267Y346D03*
X1267Y646D03*
X1367Y346D03*
X1367Y646D03*
X1467Y346D03*
X1467Y646D03*
X1567Y346D03*
X1567Y646D03*
X1667Y346D03*
X1667Y646D03*
G54D11*
X266Y3249D03*
X266Y3347D03*
X566Y3249D03*
X566Y3347D03*
X866Y3249D03*
X866Y3347D03*
X1166Y3249D03*
X1166Y3347D03*
X1466Y3249D03*
X1466Y3347D03*
X1766Y3249D03*
X1766Y3347D03*
X2066Y3249D03*
X2066Y3347D03*
X2366Y3249D03*
X2366Y3347D03*
X1766Y2849D03*
X1766Y2947D03*
X566Y2849D03*
X566Y2947D03*
X1166Y2849D03*
X1166Y2947D03*
X2366Y2849D03*
X2366Y2947D03*
X2066Y2849D03*
X2066Y2947D03*
X1466Y2849D03*
X1466Y2947D03*
X866Y2849D03*
X866Y2947D03*
X266Y2849D03*
X266Y2947D03*
G54D10*
X666Y2647D03*
X666Y2547D03*
X666Y2447D03*
X666Y2347D03*
X666Y2247D03*
X666Y2147D03*
X666Y2047D03*
X966Y2047D03*
X966Y2147D03*
X966Y2247D03*
X966Y2347D03*
X966Y2447D03*
X966Y2547D03*
X966Y2647D03*
X1966Y2047D03*
X1966Y2147D03*
X1966Y2247D03*
X1966Y2347D03*
X1966Y2447D03*
X1966Y2547D03*
X1966Y2647D03*
X1666Y2647D03*
X1666Y2547D03*
X1666Y2447D03*
X1666Y2347D03*
X1666Y2247D03*
X1666Y2147D03*
X1666Y2047D03*
G54D12*
X166Y1947D03*
X166Y2147D03*
X366Y2047D03*
G54D10*
X566Y2547D03*
X566Y2147D03*
X1066Y2547D03*
X1066Y2147D03*
X1566Y2547D03*
X1566Y2147D03*
X2066Y2547D03*
X2066Y2147D03*
X1166Y2347D03*
X1466Y2347D03*
X266Y2347D03*
X466Y2347D03*
X2266Y2347D03*
X2267Y1046D03*
G54D13*
X2068Y1646D03*
X1968Y1646D03*
X1868Y1646D03*
X1768Y1646D03*
X1668Y1646D03*
X1568Y1646D03*
X1468Y1646D03*
X1368Y1646D03*
X1268Y1646D03*
X1168Y1646D03*
X1068Y1646D03*
X968Y1646D03*
X868Y1646D03*
X768Y1646D03*
X668Y1646D03*
X2068Y1046D03*
X1968Y1046D03*
X1868Y1046D03*
X1768Y1046D03*
X1668Y1046D03*
X1568Y1046D03*
X1468Y1046D03*
X1368Y1046D03*
X1268Y1046D03*
X1168Y1046D03*
X1068Y1046D03*
X968Y1046D03*
X868Y1046D03*
X768Y1046D03*
X668Y1046D03*
G54D10*
X1466Y1947D03*
X2166Y1947D03*
X566Y1947D03*
X1066Y1947D03*
X967Y846D03*
X1567Y846D03*
X1367Y746D03*
X1867Y746D03*
G54D14*
X1466Y247D03*
X1166Y247D03*
X1467Y946D03*
X1167Y946D03*
X1667Y246D03*
X66Y2347D03*
X166Y2347D03*
G54D10*
X66Y3347D03*
X66Y2947D03*
X66Y2247D03*
X466Y2247D03*
X1266Y2247D03*
X1266Y1847D03*
X1366Y2247D03*
X1366Y1847D03*
X66Y2647D03*
X466Y2647D03*
X2166Y2447D03*
X2566Y2447D03*
X2366Y3047D03*
X1966Y3047D03*
X2367Y1946D03*
X2367Y1546D03*
X1466Y1847D03*
X1766Y1747D03*
X2566Y2747D03*
X2566Y3147D03*
X1666Y3046D03*
X1566Y2746D03*
X1066Y2747D03*
X966Y3047D03*
X1866Y247D03*
X1366Y247D03*
G54D15*
X967Y346D03*
G54D16*
X266Y3249D03*
X566Y3249D03*
X866Y3249D03*
X1166Y3249D03*
X1466Y3249D03*
X1766Y3249D03*
X2066Y3249D03*
X2366Y3249D03*
X1766Y2849D03*
X566Y2849D03*
X1166Y2849D03*
X2366Y2849D03*
X2066Y2849D03*
X1466Y2849D03*
X866Y2849D03*
X266Y2849D03*
G54D15*
X666Y2647D03*
X1966Y2047D03*
G54D17*
X166Y2147D03*
G54D18*
X2068Y1646D03*
G54D19*
X2339Y3249D02*
X2093Y3249D01*
D02*
X2039Y3249D02*
X1793Y3249D01*
D02*
X1739Y3249D02*
X1493Y3249D01*
D02*
X1439Y3249D02*
X1193Y3249D01*
D02*
X1139Y3249D02*
X893Y3249D01*
D02*
X839Y3249D02*
X593Y3249D01*
D02*
X539Y3249D02*
X293Y3249D01*
D02*
X539Y3347D02*
X293Y3347D01*
D02*
X593Y3347D02*
X839Y3347D01*
D02*
X893Y3347D02*
X1139Y3347D01*
D02*
X1193Y3347D02*
X1439Y3347D01*
D02*
X1493Y3347D02*
X1739Y3347D01*
D02*
X1793Y3347D02*
X2039Y3347D01*
D02*
X2093Y3347D02*
X2339Y3347D01*
D02*
X666Y2019D02*
X668Y1675D01*
D02*
X764Y2546D02*
X686Y2627D01*
D02*
X768Y1675D02*
X764Y2546D01*
D02*
X868Y2546D02*
X868Y1675D01*
D02*
X946Y2627D02*
X868Y2546D01*
D02*
X968Y1675D02*
X966Y2019D01*
D02*
X1575Y1674D02*
X1659Y2019D01*
D02*
X2061Y1674D02*
X1973Y2019D01*
D02*
X266Y2974D02*
X266Y3222D01*
D02*
X539Y2947D02*
X293Y2947D01*
D02*
X839Y2947D02*
X593Y2947D01*
D02*
X1139Y2947D02*
X893Y2947D01*
D02*
X1439Y2947D02*
X1193Y2947D01*
D02*
X1739Y2947D02*
X1493Y2947D01*
D02*
X2039Y2947D02*
X1793Y2947D01*
D02*
X2339Y2947D02*
X2093Y2947D01*
D02*
X239Y3347D02*
X65Y3348D01*
D02*
X467Y2447D02*
X566Y2447D01*
D02*
X566Y2447D02*
X637Y2447D01*
D02*
X554Y2825D02*
X467Y2645D01*
D02*
X467Y2645D02*
X467Y2447D01*
D02*
X367Y2248D02*
X270Y2822D01*
D02*
X637Y2247D02*
X367Y2248D01*
D02*
X1768Y2044D02*
X1765Y2546D01*
D02*
X1765Y2546D02*
X1686Y2627D01*
D02*
X1675Y1674D02*
X1768Y2044D01*
D02*
X1866Y2044D02*
X1864Y2546D01*
D02*
X1864Y2546D02*
X1946Y2627D01*
D02*
X1866Y2044D02*
X1866Y2044D01*
D02*
X1961Y1674D02*
X1866Y2044D01*
D02*
X1134Y2663D02*
X1166Y2447D01*
D02*
X1166Y2447D02*
X995Y2447D01*
D02*
X888Y2833D02*
X1134Y2663D01*
D02*
X1265Y2749D02*
X1265Y2248D01*
D02*
X1265Y2248D02*
X995Y2247D01*
D02*
X1185Y2830D02*
X1265Y2749D01*
D02*
X1364Y2749D02*
X1447Y2830D01*
D02*
X1637Y2247D02*
X1364Y2248D01*
D02*
X1364Y2248D02*
X1364Y2749D01*
D02*
X1468Y2447D02*
X1637Y2447D01*
D02*
X1744Y2834D02*
X1486Y2659D01*
D02*
X1486Y2659D02*
X1468Y2447D01*
D02*
X2167Y2447D02*
X1995Y2447D01*
D02*
X2167Y2749D02*
X2167Y2447D01*
D02*
X2085Y2830D02*
X2167Y2749D01*
D02*
X2366Y2822D02*
X2361Y2230D01*
D02*
X2361Y2230D02*
X1995Y2246D01*
D02*
X595Y2147D02*
X637Y2147D01*
D02*
X595Y2547D02*
X637Y2547D01*
D02*
X1037Y2147D02*
X995Y2147D01*
D02*
X1037Y2547D02*
X995Y2547D01*
D02*
X1595Y2547D02*
X1637Y2547D01*
D02*
X1595Y2147D02*
X1637Y2147D01*
D02*
X1995Y2547D02*
X2037Y2547D01*
D02*
X1995Y2147D02*
X2037Y2147D01*
D02*
X1495Y2347D02*
X1637Y2347D01*
D02*
X995Y2347D02*
X1137Y2347D01*
D02*
X637Y2347D02*
X495Y2347D01*
D02*
X2266Y2347D02*
X1995Y2347D01*
D02*
X2267Y2175D02*
X2266Y2347D01*
D02*
X2667Y2447D02*
X2667Y3348D01*
D02*
X1768Y1617D02*
X1766Y1448D01*
D02*
X2667Y3348D02*
X2393Y3347D01*
D02*
X2595Y2447D02*
X2667Y2447D01*
D02*
X1766Y1448D02*
X2465Y1448D01*
D02*
X1537Y2147D02*
X1095Y2147D01*
D02*
X2153Y1973D02*
X2079Y2122D01*
D02*
X1479Y1973D02*
X1553Y2122D01*
D02*
X1066Y2119D02*
X1066Y1976D01*
D02*
X566Y2119D02*
X566Y1976D01*
D02*
X566Y2045D02*
X398Y2047D01*
D02*
X566Y2119D02*
X566Y2045D01*
D02*
X1766Y1448D02*
X1969Y1448D01*
D02*
X1969Y1448D02*
X1968Y1075D01*
D02*
X366Y47D02*
X1766Y47D01*
D02*
X66Y347D02*
X366Y347D01*
D02*
X65Y1847D02*
X65Y548D01*
D02*
X65Y548D02*
X66Y347D01*
D02*
X268Y1847D02*
X65Y1847D01*
D02*
X366Y347D02*
X366Y47D01*
D02*
X266Y2319D02*
X268Y1847D01*
D02*
X1296Y646D02*
X1338Y646D01*
D02*
X1296Y346D02*
X1338Y346D01*
D02*
X666Y347D02*
X666Y645D01*
D02*
X368Y645D02*
X368Y1348D01*
D02*
X666Y645D02*
X368Y645D01*
D02*
X368Y1348D02*
X1266Y1348D01*
D02*
X938Y346D02*
X666Y347D01*
D02*
X1266Y1348D02*
X1268Y1617D01*
D02*
X801Y447D02*
X1667Y447D01*
D02*
X765Y447D02*
X801Y447D01*
D02*
X468Y744D02*
X765Y744D01*
D02*
X1667Y447D02*
X1667Y618D01*
D02*
X1365Y1245D02*
X468Y1245D01*
D02*
X1368Y1617D02*
X1365Y1245D01*
D02*
X468Y1245D02*
X468Y744D01*
D02*
X765Y744D02*
X765Y447D01*
D02*
X567Y546D02*
X567Y257D01*
D02*
X260Y550D02*
X567Y546D01*
D02*
X567Y257D02*
X1067Y248D01*
D02*
X1067Y248D02*
X1067Y318D01*
D02*
X1167Y1448D02*
X269Y1448D01*
D02*
X1168Y1617D02*
X1167Y1448D01*
D02*
X269Y1448D02*
X260Y550D01*
D02*
X466Y247D02*
X468Y447D01*
D02*
X466Y247D02*
X466Y147D01*
D02*
X1066Y147D02*
X466Y147D01*
D02*
X466Y147D02*
X466Y247D01*
D02*
X468Y447D02*
X165Y447D01*
D02*
X1067Y1547D02*
X1068Y1617D01*
D02*
X165Y1547D02*
X1067Y1547D01*
D02*
X1567Y318D02*
X1566Y147D01*
D02*
X1566Y147D02*
X1066Y147D01*
D02*
X165Y447D02*
X165Y1547D01*
D02*
X1568Y546D02*
X869Y546D01*
D02*
X567Y848D02*
X567Y1146D01*
D02*
X869Y546D02*
X869Y848D01*
D02*
X567Y1146D02*
X1469Y1146D01*
D02*
X1469Y1146D02*
X1468Y1617D01*
D02*
X869Y848D02*
X567Y848D01*
D02*
X1567Y618D02*
X1568Y546D01*
D02*
X1067Y947D02*
X666Y947D01*
D02*
X666Y947D02*
X667Y1017D01*
D02*
X1067Y675D02*
X1067Y947D01*
D02*
X967Y818D02*
X967Y675D01*
D02*
X1766Y847D02*
X2068Y848D01*
D02*
X1766Y47D02*
X1766Y847D01*
D02*
X2366Y947D02*
X2168Y947D01*
D02*
X2366Y1448D02*
X2366Y947D01*
D02*
X2168Y744D02*
X1896Y746D01*
D02*
X2168Y947D02*
X2168Y744D01*
D02*
X1367Y675D02*
X1367Y718D01*
D02*
X1466Y266D02*
X1467Y318D01*
D02*
X1166Y266D02*
X1167Y318D01*
D02*
X1167Y675D02*
X1167Y927D01*
D02*
X1467Y675D02*
X1467Y927D01*
D02*
X1667Y265D02*
X1667Y318D01*
D02*
X2068Y848D02*
X2068Y1017D01*
D02*
X237Y2347D02*
X185Y2347D01*
G54D20*
D02*
X166Y2179D02*
X166Y2328D01*
G54D19*
D02*
X2097Y1046D02*
X2238Y1046D01*
D02*
X65Y3348D02*
X52Y3372D01*
D02*
X1568Y947D02*
X1766Y947D01*
D02*
X1766Y947D02*
X1767Y1017D01*
D02*
X1567Y875D02*
X1568Y947D01*
D02*
X239Y2947D02*
X164Y2947D01*
D02*
X164Y2947D02*
X166Y2366D01*
D02*
X65Y1946D02*
X66Y2328D01*
D02*
X134Y1947D02*
X65Y1946D01*
D02*
X66Y2366D02*
X66Y2919D01*
D02*
X2361Y2230D02*
X2366Y1975D01*
D02*
X2366Y1448D02*
X2367Y1518D01*
D02*
X2167Y2447D02*
X2187Y2428D01*
D02*
X2465Y2147D02*
X2557Y2420D01*
D02*
X2465Y1448D02*
X2465Y2147D01*
D02*
X467Y2645D02*
X473Y2619D01*
D02*
X66Y2919D02*
X65Y2645D01*
D02*
X65Y2645D02*
X56Y2620D01*
D02*
X367Y2248D02*
X437Y2247D01*
D02*
X66Y2619D02*
X66Y2276D01*
D02*
X1364Y2248D02*
X1340Y2260D01*
D02*
X1265Y2248D02*
X1244Y2265D01*
D02*
X1437Y1847D02*
X1395Y1847D01*
D02*
X1767Y1675D02*
X1767Y1719D01*
D02*
X1337Y1847D02*
X1295Y1847D01*
D02*
X2566Y2476D02*
X2566Y2719D01*
D02*
X2568Y3046D02*
X2395Y3047D01*
D02*
X2566Y2776D02*
X2568Y3046D01*
D02*
X1937Y3047D02*
X1695Y3046D01*
D02*
X1567Y2749D02*
X1573Y2773D01*
D02*
X1486Y2659D02*
X1567Y2749D01*
D02*
X1134Y2663D02*
X1084Y2725D01*
D02*
X967Y3146D02*
X966Y3076D01*
D02*
X2537Y3147D02*
X967Y3146D01*
D02*
X1367Y318D02*
X1366Y276D01*
D02*
X1867Y718D02*
X1866Y276D01*
G04 End of Copper1*
M02*