; NON-PLATED HOLES START AT T1
; THROUGH (PLATED) HOLES START AT T100
M48
INCH
T100C0.035000
T101C0.015748
T102C0.031497
T103C0.036000
T104C0.041000
%
T100
X016660Y030455
X006660Y023471
X015670Y008463
X010670Y006463
X023670Y015463
X010660Y025471
X011670Y003463
X000660Y026471
X019660Y025471
X013660Y002471
X018660Y002471
X018670Y007463
X020660Y021471
X006660Y025471
X009670Y006463
X009660Y022471
X019660Y022471
X023660Y030471
X019660Y023471
X021660Y019471
X012660Y022471
X009670Y003463
X022660Y023471
X005660Y021471
X013670Y003463
X021660Y024471
X019660Y030471
X013670Y007463
X016670Y003463
X014670Y006463
X012670Y006463
X025660Y031471
X004660Y022471
X012670Y003463
X025660Y024471
X016660Y026471
X009660Y021471
X014660Y019471
X015660Y025471
X013660Y018471
X004660Y026471
X000660Y029471
X014670Y003463
X020660Y025471
X013670Y006463
X005660Y019471
X006660Y022471
X016660Y023471
X006660Y020471
X017660Y017471
X014660Y018471
X000660Y022471
X019660Y020471
X009660Y030471
X016660Y022471
X016660Y025471
X016660Y021471
X009660Y025471
X013660Y022471
X006660Y026471
X011670Y006463
X010660Y021471
X005660Y025471
X009670Y008463
X019660Y021471
X025660Y027471
X009660Y026471
X016670Y006463
X014660Y023471
X010660Y019471
X015660Y021471
X016660Y020471
X009660Y020471
X002660Y023471
X004660Y023471
X011660Y023471
X006660Y021471
X009660Y024471
X010670Y003463
X009660Y023471
X015670Y006463
X019660Y026471
X022670Y010463
X015670Y003463
X019660Y024471
X016660Y024471
X015660Y027455
X023670Y019463
X010660Y027471
X012660Y018471
X000660Y033471
X006660Y024471
T101
X014670Y009463
X011660Y002471
X014660Y002471
X001660Y023471
X000660Y023471
X011670Y009463
X016670Y002463
T102
X023660Y028486
X005660Y032486
X002660Y028486
X017660Y032486
X002660Y029471
X008660Y028486
X011660Y033471
X020660Y033471
X020660Y029471
X020660Y032486
X002660Y032486
X017660Y033471
X023660Y033471
X008660Y032486
X005660Y033471
X008660Y033471
X014660Y028486
X017660Y029471
X023660Y029471
X014660Y032486
X014660Y029471
X023660Y032486
X008660Y029471
X020660Y028486
X014660Y033471
X002660Y033471
X005660Y028486
X005660Y029471
X017660Y028486
X011660Y028486
X011660Y032486
X011660Y029471
T103
X020678Y010458
X009678Y016458
X010678Y010458
X011678Y016458
X012678Y010458
X010678Y016458
X009678Y010458
X006678Y016458
X011678Y010458
X019678Y010458
X008678Y010458
X014678Y010458
X019678Y016458
X016678Y010458
X013678Y016458
X007678Y016458
X020678Y016458
X015678Y010458
X018678Y016458
X017678Y010458
X018678Y010458
X016678Y016458
X017678Y016458
X015678Y016458
X006678Y010458
X014678Y016458
X013678Y010458
X008678Y016458
X007678Y010458
X012678Y016458
T104
X003660Y020471
X001660Y021471
X001660Y019471
T00
M30
